{
	"asset":{
		"version":"2.0",
		"generator":"Created using the official Cinema 4D glTF Exporter 1.000x284978"
	},
	"scenes":[{
		"nodes":[0]
	}],
	"bufferViews":[{
		"buffer":0,
		"byteOffset":0,
		"byteLength":432,
		"target":34963
	},
	{
		"buffer":0,
		"byteOffset":432,
		"byteLength":2688,
		"target":34962,
		"byteStride":32
	},
	{
		"buffer":1,
		"byteOffset":0,
		"byteLength":20484,
		"target":34963
	},
	{
		"buffer":1,
		"byteOffset":20484,
		"byteLength":108960,
		"target":34962,
		"byteStride":32
	},
	{
		"buffer":2,
		"byteOffset":0,
		"byteLength":144,
		"target":34963
	},
	{
		"buffer":2,
		"byteOffset":144,
		"byteLength":960,
		"target":34962,
		"byteStride":32
	},
	{
		"buffer":3,
		"byteOffset":0,
		"byteLength":144,
		"target":34963
	},
	{
		"buffer":3,
		"byteOffset":144,
		"byteLength":960,
		"target":34962,
		"byteStride":32
	},
	{
		"buffer":4,
		"byteOffset":0,
		"byteLength":144,
		"target":34963
	},
	{
		"buffer":4,
		"byteOffset":144,
		"byteLength":960,
		"target":34962,
		"byteStride":32
	},
	{
		"buffer":5,
		"byteOffset":0,
		"byteLength":144,
		"target":34963
	},
	{
		"buffer":5,
		"byteOffset":144,
		"byteLength":960,
		"target":34962,
		"byteStride":32
	},
	{
		"buffer":6,
		"byteOffset":0,
		"byteLength":6816,
		"target":34963
	},
	{
		"buffer":6,
		"byteOffset":6816,
		"byteLength":25920,
		"target":34962,
		"byteStride":32
	},
	{
		"buffer":7,
		"byteOffset":0,
		"byteLength":6768,
		"target":34963
	},
	{
		"buffer":7,
		"byteOffset":6768,
		"byteLength":25792,
		"target":34962,
		"byteStride":32
	},
	{
		"buffer":8,
		"byteOffset":0,
		"byteLength":6768,
		"target":34963
	},
	{
		"buffer":8,
		"byteOffset":6768,
		"byteLength":25792,
		"target":34962,
		"byteStride":32
	},
	{
		"buffer":9,
		"byteOffset":0,
		"byteLength":6768,
		"target":34963
	},
	{
		"buffer":9,
		"byteOffset":6768,
		"byteLength":25792,
		"target":34962,
		"byteStride":32
	},
	{
		"buffer":10,
		"byteOffset":0,
		"byteLength":6768,
		"target":34963
	},
	{
		"buffer":10,
		"byteOffset":6768,
		"byteLength":25792,
		"target":34962,
		"byteStride":32
	},
	{
		"buffer":11,
		"byteOffset":0,
		"byteLength":6768,
		"target":34963
	},
	{
		"buffer":11,
		"byteOffset":6768,
		"byteLength":25792,
		"target":34962,
		"byteStride":32
	},
	{
		"buffer":12,
		"byteOffset":0,
		"byteLength":6768,
		"target":34963
	},
	{
		"buffer":12,
		"byteOffset":6768,
		"byteLength":25792,
		"target":34962,
		"byteStride":32
	},
	{
		"buffer":13,
		"byteOffset":0,
		"byteLength":6768,
		"target":34963
	},
	{
		"buffer":13,
		"byteOffset":6768,
		"byteLength":25792,
		"target":34962,
		"byteStride":32
	},
	{
		"buffer":14,
		"byteOffset":0,
		"byteLength":6768,
		"target":34963
	},
	{
		"buffer":14,
		"byteOffset":6768,
		"byteLength":25792,
		"target":34962,
		"byteStride":32
	}],
	"nodes":[{
		"name":"HustleLine Kennels v27",
		"children":[1,
		2]
	},
	{
		"name":"Deck:1",
		"rotation":[0.0,
		0.0,
		0.0,
		-1.0],
		"translation":[0.0,
		20.31999969482422,
		0.0],
		"scale":[1.0,
		1.0,
		1.0],
		"children":[3]
	},
	{
		"name":"Ramp:1",
		"rotation":[-0.15643446147441865,
		0.0,
		0.0,
		-0.9876883625984192],
		"translation":[2.1596172251761929e-14,
		70.05113983154297,
		0.812028706073761],
		"scale":[1.0,
		1.0,
		1.0],
		"children":[4]
	},
	{
		"name":"Deck",
		"children":[5,
		6,
		7,
		8,
		9,
		10]
	},
	{
		"name":"Ramp",
		"children":[11,
		12,
		13,
		14,
		15,
		16,
		17,
		18,
		19]
	},
	{
		"name":"Deck",
		"mesh":0,
		"rotation":[0.0,
		0.0,
		7.450580596923828e-9,
		-1.0],
		"translation":[0.0,
		0.0,
		0.0],
		"scale":[0.3937007784843445,
		0.3937007784843445,
		0.3937007784843445]
	},
	{
		"name":"Rug",
		"mesh":1,
		"rotation":[0.0,
		0.0,
		7.450580596923828e-9,
		-1.0],
		"translation":[0.0,
		0.0,
		0.0],
		"scale":[0.3937007784843445,
		0.3937007784843445,
		0.3937007784843445]
	},
	{
		"name":"Back Left Leg",
		"mesh":2,
		"rotation":[0.0,
		0.0,
		7.450580596923828e-9,
		-1.0],
		"translation":[0.0,
		0.0,
		0.0],
		"scale":[0.3937007784843445,
		0.3937007784843445,
		0.3937007784843445]
	},
	{
		"name":"Front Left Leg",
		"mesh":3,
		"rotation":[0.0,
		0.0,
		7.450580596923828e-9,
		-1.0],
		"translation":[0.0,
		0.0,
		0.0],
		"scale":[0.3937007784843445,
		0.3937007784843445,
		0.3937007784843445]
	},
	{
		"name":"Front Right Leg",
		"mesh":4,
		"rotation":[0.0,
		0.0,
		7.450580596923828e-9,
		-1.0],
		"translation":[0.0,
		0.0,
		0.0],
		"scale":[0.3937007784843445,
		0.3937007784843445,
		0.3937007784843445]
	},
	{
		"name":"Back Right Leg",
		"mesh":5,
		"rotation":[0.0,
		0.0,
		7.450580596923828e-9,
		-1.0],
		"translation":[0.0,
		0.0,
		0.0],
		"scale":[0.3937007784843445,
		0.3937007784843445,
		0.3937007784843445]
	},
	{
		"name":"Body1",
		"mesh":6,
		"rotation":[-1.7624790251226565e-17,
		0.0,
		0.0,
		-1.0],
		"translation":[0.0,
		0.0,
		0.0],
		"scale":[0.3937007784843445,
		0.3937007784843445,
		0.3937007784843445]
	},
	{
		"name":"Body2",
		"mesh":7,
		"rotation":[-1.7624790251226565e-17,
		0.0,
		0.0,
		-1.0],
		"translation":[0.0,
		0.0,
		0.0],
		"scale":[0.3937007784843445,
		0.3937007784843445,
		0.3937007784843445]
	},
	{
		"name":"Body3",
		"mesh":8,
		"rotation":[-1.7624790251226565e-17,
		0.0,
		0.0,
		-1.0],
		"translation":[0.0,
		0.0,
		0.0],
		"scale":[0.3937007784843445,
		0.3937007784843445,
		0.3937007784843445]
	},
	{
		"name":"Body4",
		"mesh":9,
		"rotation":[-1.7624790251226565e-17,
		0.0,
		0.0,
		-1.0],
		"translation":[0.0,
		0.0,
		0.0],
		"scale":[0.3937007784843445,
		0.3937007784843445,
		0.3937007784843445]
	},
	{
		"name":"Body5",
		"mesh":10,
		"rotation":[-1.7624790251226565e-17,
		0.0,
		0.0,
		-1.0],
		"translation":[0.0,
		0.0,
		0.0],
		"scale":[0.3937007784843445,
		0.3937007784843445,
		0.3937007784843445]
	},
	{
		"name":"Body6",
		"mesh":11,
		"rotation":[-1.7624790251226565e-17,
		0.0,
		0.0,
		-1.0],
		"translation":[0.0,
		0.0,
		0.0],
		"scale":[0.3937007784843445,
		0.3937007784843445,
		0.3937007784843445]
	},
	{
		"name":"Body7",
		"mesh":12,
		"rotation":[-1.7624790251226565e-17,
		0.0,
		0.0,
		-1.0],
		"translation":[0.0,
		0.0,
		0.0],
		"scale":[0.3937007784843445,
		0.3937007784843445,
		0.3937007784843445]
	},
	{
		"name":"Body8",
		"mesh":13,
		"rotation":[-1.7624790251226565e-17,
		0.0,
		0.0,
		-1.0],
		"translation":[0.0,
		0.0,
		0.0],
		"scale":[0.3937007784843445,
		0.3937007784843445,
		0.3937007784843445]
	},
	{
		"name":"Body9",
		"mesh":14,
		"rotation":[-1.7624790251226565e-17,
		0.0,
		0.0,
		-1.0],
		"translation":[0.0,
		0.0,
		0.0],
		"scale":[0.3937007784843445,
		0.3937007784843445,
		0.3937007784843445]
	}],
	"meshes":[{
		"name":"Deck",
		"primitives":[{
			"attributes":{
				"POSITION":1,
				"NORMAL":2,
				"TEXCOORD_0":3
			},
			"indices":0,
			"material":0
		}]
	},
	{
		"name":"Rug",
		"primitives":[{
			"attributes":{
				"POSITION":5,
				"NORMAL":6,
				"TEXCOORD_0":7
			},
			"indices":4,
			"material":1
		}]
	},
	{
		"name":"Back Left Leg",
		"primitives":[{
			"attributes":{
				"POSITION":9,
				"NORMAL":10,
				"TEXCOORD_0":11
			},
			"indices":8,
			"material":0
		}]
	},
	{
		"name":"Front Left Leg",
		"primitives":[{
			"attributes":{
				"POSITION":13,
				"NORMAL":14,
				"TEXCOORD_0":15
			},
			"indices":12,
			"material":0
		}]
	},
	{
		"name":"Front Right Leg",
		"primitives":[{
			"attributes":{
				"POSITION":17,
				"NORMAL":18,
				"TEXCOORD_0":19
			},
			"indices":16,
			"material":0
		}]
	},
	{
		"name":"Back Right Leg",
		"primitives":[{
			"attributes":{
				"POSITION":21,
				"NORMAL":22,
				"TEXCOORD_0":23
			},
			"indices":20,
			"material":0
		}]
	},
	{
		"name":"Body1",
		"primitives":[{
			"attributes":{
				"POSITION":25,
				"NORMAL":26,
				"TEXCOORD_0":27
			},
			"indices":24,
			"material":0
		}]
	},
	{
		"name":"Body2",
		"primitives":[{
			"attributes":{
				"POSITION":29,
				"NORMAL":30,
				"TEXCOORD_0":31
			},
			"indices":28,
			"material":0
		}]
	},
	{
		"name":"Body3",
		"primitives":[{
			"attributes":{
				"POSITION":33,
				"NORMAL":34,
				"TEXCOORD_0":35
			},
			"indices":32,
			"material":0
		}]
	},
	{
		"name":"Body4",
		"primitives":[{
			"attributes":{
				"POSITION":37,
				"NORMAL":38,
				"TEXCOORD_0":39
			},
			"indices":36,
			"material":0
		}]
	},
	{
		"name":"Body5",
		"primitives":[{
			"attributes":{
				"POSITION":41,
				"NORMAL":42,
				"TEXCOORD_0":43
			},
			"indices":40,
			"material":0
		}]
	},
	{
		"name":"Body6",
		"primitives":[{
			"attributes":{
				"POSITION":45,
				"NORMAL":46,
				"TEXCOORD_0":47
			},
			"indices":44,
			"material":0
		}]
	},
	{
		"name":"Body7",
		"primitives":[{
			"attributes":{
				"POSITION":49,
				"NORMAL":50,
				"TEXCOORD_0":51
			},
			"indices":48,
			"material":0
		}]
	},
	{
		"name":"Body8",
		"primitives":[{
			"attributes":{
				"POSITION":53,
				"NORMAL":54,
				"TEXCOORD_0":55
			},
			"indices":52,
			"material":0
		}]
	},
	{
		"name":"Body9",
		"primitives":[{
			"attributes":{
				"POSITION":57,
				"NORMAL":58,
				"TEXCOORD_0":59
			},
			"indices":56,
			"material":0
		}]
	}],
	"accessors":[{
		"bufferView":0,
		"type":"SCALAR",
		"componentType":5123,
		"count":216,
		"byteOffset":0,
		"min":[0],
		"max":[83]
	},
	{
		"bufferView":1,
		"type":"VEC3",
		"componentType":5126,
		"count":84,
		"byteOffset":0,
		"min":[-206.45120239257813,
		0.0,
		-399.99920654296877],
		"max":[206.45120239257813,
		38.709598541259769,
		399.99920654296877]
	},
	{
		"bufferView":1,
		"type":"VEC3",
		"componentType":5126,
		"count":84,
		"byteOffset":12,
		"min":[-1.0,
		-1.0,
		-1.0],
		"max":[1.0,
		1.0,
		1.0]
	},
	{
		"bufferView":1,
		"type":"VEC2",
		"componentType":5126,
		"count":84,
		"byteOffset":24,
		"min":[-309.8800048828125,
		-156.47998046875],
		"max":[314.9599914550781,
		158.47998046875]
	},
	{
		"bufferView":2,
		"type":"SCALAR",
		"componentType":5123,
		"count":10242,
		"byteOffset":0,
		"min":[0],
		"max":[3404]
	},
	{
		"bufferView":3,
		"type":"VEC3",
		"componentType":5126,
		"count":3405,
		"byteOffset":0,
		"min":[-193.54800415039063,
		12.903200149536133,
		-387.09600830078127],
		"max":[193.54800415039063,
		38.709598541259769,
		387.09600830078127]
	},
	{
		"bufferView":3,
		"type":"VEC3",
		"componentType":5126,
		"count":3405,
		"byteOffset":12,
		"min":[-1.0,
		-1.0,
		-1.0],
		"max":[1.0,
		1.0,
		1.0]
	},
	{
		"bufferView":3,
		"type":"VEC2",
		"componentType":5126,
		"count":3405,
		"byteOffset":24,
		"min":[-152.39999389648438,
		-151.39999389648438],
		"max":[304.79998779296877,
		153.39999389648438]
	},
	{
		"bufferView":4,
		"type":"SCALAR",
		"componentType":5123,
		"count":72,
		"byteOffset":0,
		"min":[0],
		"max":[29]
	},
	{
		"bufferView":5,
		"type":"VEC3",
		"componentType":5126,
		"count":30,
		"byteOffset":0,
		"min":[-206.45120239257813,
		-51.61280059814453,
		-399.99920654296877],
		"max":[-167.74159240722657,
		0.0,
		-374.19281005859377]
	},
	{
		"bufferView":5,
		"type":"VEC3",
		"componentType":5126,
		"count":30,
		"byteOffset":12,
		"min":[-1.0,
		-1.0,
		-1.0],
		"max":[1.0,
		1.0,
		1.0]
	},
	{
		"bufferView":5,
		"type":"VEC2",
		"componentType":5126,
		"count":30,
		"byteOffset":24,
		"min":[-5.079999923706055,
		-14.239999771118164],
		"max":[20.31999969482422,
		11.15999984741211]
	},
	{
		"bufferView":6,
		"type":"SCALAR",
		"componentType":5123,
		"count":72,
		"byteOffset":0,
		"min":[0],
		"max":[29]
	},
	{
		"bufferView":7,
		"type":"VEC3",
		"componentType":5126,
		"count":30,
		"byteOffset":0,
		"min":[-206.45120239257813,
		-51.61280059814453,
		374.19281005859377],
		"max":[-167.74159240722657,
		0.0,
		399.99920654296877]
	},
	{
		"bufferView":7,
		"type":"VEC3",
		"componentType":5126,
		"count":30,
		"byteOffset":12,
		"min":[-1.0,
		-1.0,
		-1.0],
		"max":[1.0,
		1.0,
		1.0]
	},
	{
		"bufferView":7,
		"type":"VEC2",
		"componentType":5126,
		"count":30,
		"byteOffset":24,
		"min":[-20.31999969482422,
		-14.239999771118164],
		"max":[5.079999923706055,
		11.15999984741211]
	},
	{
		"bufferView":8,
		"type":"SCALAR",
		"componentType":5123,
		"count":72,
		"byteOffset":0,
		"min":[0],
		"max":[29]
	},
	{
		"bufferView":9,
		"type":"VEC3",
		"componentType":5126,
		"count":30,
		"byteOffset":0,
		"min":[167.74159240722657,
		-51.61280059814453,
		374.19281005859377],
		"max":[206.45120239257813,
		0.0,
		399.99920654296877]
	},
	{
		"bufferView":9,
		"type":"VEC3",
		"componentType":5126,
		"count":30,
		"byteOffset":12,
		"min":[-1.0,
		-1.0,
		-1.0],
		"max":[1.0,
		1.0,
		1.0]
	},
	{
		"bufferView":9,
		"type":"VEC2",
		"componentType":5126,
		"count":30,
		"byteOffset":24,
		"min":[-5.079999923706055,
		-14.239999771118164],
		"max":[20.31999969482422,
		11.15999984741211]
	},
	{
		"bufferView":10,
		"type":"SCALAR",
		"componentType":5123,
		"count":72,
		"byteOffset":0,
		"min":[0],
		"max":[29]
	},
	{
		"bufferView":11,
		"type":"VEC3",
		"componentType":5126,
		"count":30,
		"byteOffset":0,
		"min":[167.74159240722657,
		-51.61280059814453,
		-399.99920654296877],
		"max":[206.45120239257813,
		0.0,
		-374.19281005859377]
	},
	{
		"bufferView":11,
		"type":"VEC3",
		"componentType":5126,
		"count":30,
		"byteOffset":12,
		"min":[-1.0,
		-1.0,
		-1.0],
		"max":[1.0,
		1.0,
		1.0]
	},
	{
		"bufferView":11,
		"type":"VEC2",
		"componentType":5126,
		"count":30,
		"byteOffset":24,
		"min":[-20.31999969482422,
		-14.239999771118164],
		"max":[5.079999923706055,
		11.15999984741211]
	},
	{
		"bufferView":12,
		"type":"SCALAR",
		"componentType":5123,
		"count":3408,
		"byteOffset":0,
		"min":[0],
		"max":[809]
	},
	{
		"bufferView":13,
		"type":"VEC3",
		"componentType":5126,
		"count":810,
		"byteOffset":0,
		"min":[-154.83839416503907,
		38.709598541259769,
		399.99920654296877],
		"max":[7.580069926772792e-13,
		45.16120147705078,
		645.1599731445313]
	},
	{
		"bufferView":13,
		"type":"VEC3",
		"componentType":5126,
		"count":810,
		"byteOffset":12,
		"min":[-1.0,
		-1.0,
		-1.0],
		"max":[1.0,
		1.0,
		1.0]
	},
	{
		"bufferView":13,
		"type":"VEC2",
		"componentType":5126,
		"count":810,
		"byteOffset":24,
		"min":[-71.88200378417969,
		-46.75199890136719],
		"max":[96.01200103759766,
		48.75199890136719]
	},
	{
		"bufferView":14,
		"type":"SCALAR",
		"componentType":5123,
		"count":3384,
		"byteOffset":0,
		"min":[0],
		"max":[805]
	},
	{
		"bufferView":15,
		"type":"VEC3",
		"componentType":5126,
		"count":806,
		"byteOffset":0,
		"min":[-38.709598541259769,
		25.806400299072267,
		437.4139099121094],
		"max":[7.580069926772792e-13,
		38.709598541259769,
		645.1599731445313]
	},
	{
		"bufferView":15,
		"type":"VEC3",
		"componentType":5126,
		"count":806,
		"byteOffset":12,
		"min":[-1.0,
		-1.0,
		-1.0],
		"max":[1.0,
		1.0,
		1.0]
	},
	{
		"bufferView":15,
		"type":"VEC2",
		"componentType":5126,
		"count":806,
		"byteOffset":24,
		"min":[-60.834346771240237,
		-39.38689422607422],
		"max":[81.28179168701172,
		41.38689422607422]
	},
	{
		"bufferView":16,
		"type":"SCALAR",
		"componentType":5123,
		"count":3384,
		"byteOffset":0,
		"min":[0],
		"max":[805]
	},
	{
		"bufferView":17,
		"type":"VEC3",
		"componentType":5126,
		"count":806,
		"byteOffset":0,
		"min":[-154.83839416503907,
		45.16120147705078,
		465.3494567871094],
		"max":[0.0,
		51.61280059814453,
		493.5473937988281]
	},
	{
		"bufferView":17,
		"type":"VEC3",
		"componentType":5126,
		"count":806,
		"byteOffset":12,
		"min":[-1.0,
		-1.0,
		-1.0],
		"max":[1.0,
		1.0,
		1.0]
	},
	{
		"bufferView":17,
		"type":"VEC2",
		"componentType":5126,
		"count":806,
		"byteOffset":24,
		"min":[-45.21200180053711,
		-28.972000122070314],
		"max":[60.45199966430664,
		30.972000122070314]
	},
	{
		"bufferView":18,
		"type":"SCALAR",
		"componentType":5123,
		"count":3384,
		"byteOffset":0,
		"min":[0],
		"max":[805]
	},
	{
		"bufferView":19,
		"type":"VEC3",
		"componentType":5126,
		"count":806,
		"byteOffset":0,
		"min":[-154.83839416503907,
		45.16120147705078,
		562.1234741210938],
		"max":[0.0,
		51.61280059814453,
		590.3214111328125]
	},
	{
		"bufferView":19,
		"type":"VEC3",
		"componentType":5126,
		"count":806,
		"byteOffset":12,
		"min":[-1.0,
		-1.0,
		-1.0],
		"max":[1.0,
		1.0,
		1.0]
	},
	{
		"bufferView":19,
		"type":"VEC2",
		"componentType":5126,
		"count":806,
		"byteOffset":24,
		"min":[-45.21200180053711,
		-28.972000122070314],
		"max":[60.45199966430664,
		30.972000122070314]
	},
	{
		"bufferView":20,
		"type":"SCALAR",
		"componentType":5123,
		"count":3384,
		"byteOffset":0,
		"min":[0],
		"max":[805]
	},
	{
		"bufferView":21,
		"type":"VEC3",
		"componentType":5126,
		"count":806,
		"byteOffset":0,
		"min":[-154.83839416503907,
		45.16120147705078,
		513.7364501953125],
		"max":[0.0,
		51.61280059814453,
		541.9343872070313]
	},
	{
		"bufferView":21,
		"type":"VEC3",
		"componentType":5126,
		"count":806,
		"byteOffset":12,
		"min":[-1.0,
		-1.0,
		-1.0],
		"max":[1.0,
		1.0,
		1.0]
	},
	{
		"bufferView":21,
		"type":"VEC2",
		"componentType":5126,
		"count":806,
		"byteOffset":24,
		"min":[-45.21200180053711,
		-28.972000122070314],
		"max":[60.45199966430664,
		30.972000122070314]
	},
	{
		"bufferView":22,
		"type":"SCALAR",
		"componentType":5123,
		"count":3384,
		"byteOffset":0,
		"min":[0],
		"max":[805]
	},
	{
		"bufferView":23,
		"type":"VEC3",
		"componentType":5126,
		"count":806,
		"byteOffset":0,
		"min":[-154.83839416503907,
		45.16120147705078,
		416.96246337890627],
		"max":[0.0,
		51.61280059814453,
		445.160400390625]
	},
	{
		"bufferView":23,
		"type":"VEC3",
		"componentType":5126,
		"count":806,
		"byteOffset":12,
		"min":[-1.0,
		-1.0,
		-1.0],
		"max":[1.0,
		1.0,
		1.0]
	},
	{
		"bufferView":23,
		"type":"VEC2",
		"componentType":5126,
		"count":806,
		"byteOffset":24,
		"min":[-45.21200180053711,
		-28.972000122070314],
		"max":[60.45199966430664,
		30.972000122070314]
	},
	{
		"bufferView":24,
		"type":"SCALAR",
		"componentType":5123,
		"count":3384,
		"byteOffset":0,
		"min":[0],
		"max":[805]
	},
	{
		"bufferView":25,
		"type":"VEC3",
		"componentType":5126,
		"count":806,
		"byteOffset":0,
		"min":[-154.83839416503907,
		45.16120147705078,
		610.5104370117188],
		"max":[0.0,
		51.61280059814453,
		638.7083740234375]
	},
	{
		"bufferView":25,
		"type":"VEC3",
		"componentType":5126,
		"count":806,
		"byteOffset":12,
		"min":[-1.0,
		-1.0,
		-1.0],
		"max":[1.0,
		1.0,
		1.0]
	},
	{
		"bufferView":25,
		"type":"VEC2",
		"componentType":5126,
		"count":806,
		"byteOffset":24,
		"min":[-45.21200180053711,
		-28.972000122070314],
		"max":[60.45199966430664,
		30.972000122070314]
	},
	{
		"bufferView":26,
		"type":"SCALAR",
		"componentType":5123,
		"count":3384,
		"byteOffset":0,
		"min":[0],
		"max":[805]
	},
	{
		"bufferView":27,
		"type":"VEC3",
		"componentType":5126,
		"count":806,
		"byteOffset":0,
		"min":[-96.77400207519531,
		25.806400299072267,
		437.4139099121094],
		"max":[-58.06439971923828,
		38.709598541259769,
		645.1599731445313]
	},
	{
		"bufferView":27,
		"type":"VEC3",
		"componentType":5126,
		"count":806,
		"byteOffset":12,
		"min":[-1.0,
		-1.0,
		-1.0],
		"max":[1.0,
		1.0,
		1.0]
	},
	{
		"bufferView":27,
		"type":"VEC2",
		"componentType":5126,
		"count":806,
		"byteOffset":24,
		"min":[-60.834346771240237,
		-39.38689422607422],
		"max":[81.28179168701172,
		41.38689422607422]
	},
	{
		"bufferView":28,
		"type":"SCALAR",
		"componentType":5123,
		"count":3384,
		"byteOffset":0,
		"min":[0],
		"max":[805]
	},
	{
		"bufferView":29,
		"type":"VEC3",
		"componentType":5126,
		"count":806,
		"byteOffset":0,
		"min":[-154.83839416503907,
		25.806400299072267,
		437.4139099121094],
		"max":[-116.12879943847656,
		38.709598541259769,
		645.1599731445313]
	},
	{
		"bufferView":29,
		"type":"VEC3",
		"componentType":5126,
		"count":806,
		"byteOffset":12,
		"min":[-1.0,
		-1.0,
		-1.0],
		"max":[1.0,
		1.0,
		1.0]
	},
	{
		"bufferView":29,
		"type":"VEC2",
		"componentType":5126,
		"count":806,
		"byteOffset":24,
		"min":[-60.834346771240237,
		-39.38689422607422],
		"max":[81.28179168701172,
		41.38689422607422]
	}],
	"buffers":[{
		"uri":"data:application/octet-stream;base64,",
		"byteLength":3120
	},
	{
		"uri":"data:application/octet-stream;base64,",
		"byteLength":129444
	},
	{
		"uri":"data:application/octet-stream;base64,",
		"byteLength":1104
	},
	{
		"uri":"data:application/octet-stream;base64,",
		"byteLength":1104
	},
	{
		"uri":"data:application/octet-stream;base64,",
		"byteLength":1104
	},
	{
		"uri":"data:application/octet-stream;base64,",
		"byteLength":1104
	},
	{
		"uri":"data:application/octet-stream;base64,",
		"byteLength":32736
	},
	{
		"uri":"data:application/octet-stream;base64,",
		"byteLength":32560
	},
	{
		"uri":"data:application/octet-stream;base64,",
		"byteLength":32560
	},
	{
		"uri":"data:application/octet-stream;base64,",
		"byteLength":32560
	},
	{
		"uri":"data:application/octet-stream;base64,",
		"byteLength":32560
	},
	{
		"uri":"data:application/octet-stream;base64,",
		"byteLength":32560
	},
	{
		"uri":"data:application/octet-stream;base64,",
		"byteLength":32560
	},
	{
		"uri":"data:application/octet-stream;base64,",
		"byteLength":32560
	},
	{
		"uri":"data:application/octet-stream;base64,",
		"byteLength":32560
	}],
	"materials":[{
		"pbrMetallicRoughness":{
			"baseColorFactor":[0.8588235294117647,
			0.6509803921568628,
			0.4,
			1.0],
			"metallicFactor":0.0,
			"roughnessFactor":0.5678071905112637
		},
		"emissiveFactor":[0.0,
		0.0,
		0.0],
		"alphaMode":"OPAQUE",
		"doubleSided":false,
		"name":"3D Pine - Unfinished"
	},
	{
		"pbrMetallicRoughness":{
			"baseColorFactor":[0.15294117647058826,
			0.15294117647058826,
			0.15294117647058826,
			1.0],
			"metallicFactor":0.0,
			"roughnessFactor":0.5678071905112637
		},
		"emissiveFactor":[0.0,
		0.0,
		0.0],
		"alphaMode":"OPAQUE",
		"doubleSided":false,
		"name":"Rubber - Weathered"
	}]
}