{
	"asset":{
		"version":"2.0",
		"generator":"Created using the official Cinema 4D glTF Exporter 1.000x284978"
	},
	"scenes":[{
		"nodes":[0]
	}],
	"nodes":[{
		"name":"HustleLine Kennels v31",
		"children":[1,
		2]
	},
	{
		"rotation":[0.0,
		0.0,
		0.0,
		-1.0],
		"name":"Deck:1",
		"translation":[0.0,
		8.0,
		0.0],
		"scale":[1.0,
		1.0,
		1.0],
		"children":[3]
	},
	{
		"rotation":[-0.15643446147441865,
		0.0,
		0.0,
		-0.9876883625984192],
		"name":"Ramp:1",
		"translation":[8.502430327178047e-15,
		27.579187393188478,
		0.3196963369846344],
		"scale":[1.0,
		1.0,
		1.0],
		"children":[4]
	},
	{
		"name":"Deck",
		"children":[5,
		6,
		7,
		8,
		9,
		10]
	},
	{
		"name":"Ramp",
		"children":[11,
		12,
		13,
		14,
		15,
		16,
		17,
		18,
		19]
	},
	{
		"rotation":[0.0,
		0.0,
		7.450580596923828e-9,
		-1.0],
		"name":"Deck",
		"mesh":0,
		"translation":[0.0,
		0.0,
		0.0],
		"scale":[0.3937007784843445,
		0.3937007784843445,
		0.3937007784843445]
	},
	{
		"rotation":[0.0,
		0.0,
		7.450580596923828e-9,
		-1.0],
		"name":"Platform",
		"translation":[0.0,
		0.0,
		0.0],
		"scale":[0.3937007784843445,
		0.3937007784843445,
		0.3937007784843445],
		"children":[20,
		21]
	},
	{
		"rotation":[0.0,
		0.0,
		7.450580596923828e-9,
		-1.0],
		"name":"Back Left Leg",
		"mesh":1,
		"translation":[0.0,
		0.0,
		0.0],
		"scale":[0.3937007784843445,
		0.3937007784843445,
		0.3937007784843445]
	},
	{
		"rotation":[0.0,
		0.0,
		7.450580596923828e-9,
		-1.0],
		"name":"Front Left Leg",
		"mesh":2,
		"translation":[0.0,
		0.0,
		0.0],
		"scale":[0.3937007784843445,
		0.3937007784843445,
		0.3937007784843445]
	},
	{
		"rotation":[0.0,
		0.0,
		7.450580596923828e-9,
		-1.0],
		"name":"Front Right Leg",
		"mesh":3,
		"translation":[0.0,
		0.0,
		0.0],
		"scale":[0.3937007784843445,
		0.3937007784843445,
		0.3937007784843445]
	},
	{
		"rotation":[0.0,
		0.0,
		7.450580596923828e-9,
		-1.0],
		"name":"Back Right Leg",
		"mesh":4,
		"translation":[0.0,
		0.0,
		0.0],
		"scale":[0.3937007784843445,
		0.3937007784843445,
		0.3937007784843445]
	},
	{
		"rotation":[-1.7624790251226565e-17,
		0.0,
		0.0,
		-1.0],
		"name":"Body1",
		"mesh":5,
		"translation":[0.0,
		0.0,
		0.0],
		"scale":[0.3937007784843445,
		0.3937007784843445,
		0.3937007784843445]
	},
	{
		"rotation":[-1.7624790251226565e-17,
		0.0,
		0.0,
		-1.0],
		"name":"Body2",
		"mesh":6,
		"translation":[0.0,
		0.0,
		0.0],
		"scale":[0.3937007784843445,
		0.3937007784843445,
		0.3937007784843445]
	},
	{
		"rotation":[-1.7624790251226565e-17,
		0.0,
		0.0,
		-1.0],
		"name":"Body3",
		"mesh":7,
		"translation":[0.0,
		0.0,
		0.0],
		"scale":[0.3937007784843445,
		0.3937007784843445,
		0.3937007784843445]
	},
	{
		"rotation":[-1.7624790251226565e-17,
		0.0,
		0.0,
		-1.0],
		"name":"Body4",
		"mesh":8,
		"translation":[0.0,
		0.0,
		0.0],
		"scale":[0.3937007784843445,
		0.3937007784843445,
		0.3937007784843445]
	},
	{
		"rotation":[-1.7624790251226565e-17,
		0.0,
		0.0,
		-1.0],
		"name":"Body5",
		"mesh":9,
		"translation":[0.0,
		0.0,
		0.0],
		"scale":[0.3937007784843445,
		0.3937007784843445,
		0.3937007784843445]
	},
	{
		"rotation":[-1.7624790251226565e-17,
		0.0,
		0.0,
		-1.0],
		"name":"Body6",
		"mesh":10,
		"translation":[0.0,
		0.0,
		0.0],
		"scale":[0.3937007784843445,
		0.3937007784843445,
		0.3937007784843445]
	},
	{
		"rotation":[-1.7624790251226565e-17,
		0.0,
		0.0,
		-1.0],
		"name":"Body7",
		"mesh":11,
		"translation":[0.0,
		0.0,
		0.0],
		"scale":[0.3937007784843445,
		0.3937007784843445,
		0.3937007784843445]
	},
	{
		"rotation":[-1.7624790251226565e-17,
		0.0,
		0.0,
		-1.0],
		"name":"Body8",
		"mesh":12,
		"translation":[0.0,
		0.0,
		0.0],
		"scale":[0.3937007784843445,
		0.3937007784843445,
		0.3937007784843445]
	},
	{
		"rotation":[-1.7624790251226565e-17,
		0.0,
		0.0,
		-1.0],
		"name":"Body9",
		"mesh":13,
		"translation":[0.0,
		0.0,
		0.0],
		"scale":[0.3937007784843445,
		0.3937007784843445,
		0.3937007784843445]
	},
	{
		"name":"Platform",
		"mesh":14
	},
	{
		"name":"Platform-Rubber - Bumpy",
		"mesh":15
	}],
	"meshes":[{
		"name":"Deck",
		"primitives":[{
			"attributes":{
				"POSITION":1,
				"NORMAL":2,
				"TEXCOORD_0":3
			},
			"indices":0,
			"material":0
		}]
	},
	{
		"name":"Back Left Leg",
		"primitives":[{
			"attributes":{
				"POSITION":5,
				"NORMAL":6,
				"TEXCOORD_0":7
			},
			"indices":4,
			"material":0
		}]
	},
	{
		"name":"Front Left Leg",
		"primitives":[{
			"attributes":{
				"POSITION":9,
				"NORMAL":10,
				"TEXCOORD_0":11
			},
			"indices":8,
			"material":0
		}]
	},
	{
		"name":"Front Right Leg",
		"primitives":[{
			"attributes":{
				"POSITION":13,
				"NORMAL":14,
				"TEXCOORD_0":15
			},
			"indices":12,
			"material":0
		}]
	},
	{
		"name":"Back Right Leg",
		"primitives":[{
			"attributes":{
				"POSITION":17,
				"NORMAL":18,
				"TEXCOORD_0":19
			},
			"indices":16,
			"material":0
		}]
	},
	{
		"name":"Body1",
		"primitives":[{
			"attributes":{
				"POSITION":21,
				"NORMAL":22,
				"TEXCOORD_0":23
			},
			"indices":20,
			"material":0
		}]
	},
	{
		"name":"Body2",
		"primitives":[{
			"attributes":{
				"POSITION":25,
				"NORMAL":26,
				"TEXCOORD_0":27
			},
			"indices":24,
			"material":0
		}]
	},
	{
		"name":"Body3",
		"primitives":[{
			"attributes":{
				"POSITION":29,
				"NORMAL":30,
				"TEXCOORD_0":31
			},
			"indices":28,
			"material":0
		}]
	},
	{
		"name":"Body4",
		"primitives":[{
			"attributes":{
				"POSITION":33,
				"NORMAL":34,
				"TEXCOORD_0":35
			},
			"indices":32,
			"material":0
		}]
	},
	{
		"name":"Body5",
		"primitives":[{
			"attributes":{
				"POSITION":37,
				"NORMAL":38,
				"TEXCOORD_0":39
			},
			"indices":36,
			"material":0
		}]
	},
	{
		"name":"Body6",
		"primitives":[{
			"attributes":{
				"POSITION":41,
				"NORMAL":42,
				"TEXCOORD_0":43
			},
			"indices":40,
			"material":0
		}]
	},
	{
		"name":"Body7",
		"primitives":[{
			"attributes":{
				"POSITION":45,
				"NORMAL":46,
				"TEXCOORD_0":47
			},
			"indices":44,
			"material":0
		}]
	},
	{
		"name":"Body8",
		"primitives":[{
			"attributes":{
				"POSITION":49,
				"NORMAL":50,
				"TEXCOORD_0":51
			},
			"indices":48,
			"material":0
		}]
	},
	{
		"name":"Body9",
		"primitives":[{
			"attributes":{
				"POSITION":53,
				"NORMAL":54,
				"TEXCOORD_0":55
			},
			"indices":52,
			"material":0
		}]
	},
	{
		"name":"Platform",
		"primitives":[{
			"attributes":{
				"POSITION":57,
				"NORMAL":58,
				"TEXCOORD_0":59
			},
			"indices":56
		}]
	},
	{
		"name":"Platform-Rubber - Bumpy",
		"primitives":[{
			"attributes":{
				"POSITION":61,
				"NORMAL":62,
				"TEXCOORD_0":63
			},
			"indices":60,
			"material":1
		}]
	}],
	"accessors":[{
		"max":[83],
		"bufferView":0,
		"type":"SCALAR",
		"componentType":5123,
		"min":[0],
		"count":216,
		"byteOffset":0
	},
	{
		"max":[81.27999877929688,
		15.239999771118164,
		157.47999572753907],
		"bufferView":1,
		"type":"VEC3",
		"componentType":5126,
		"min":[-81.27999877929688,
		0.0,
		-157.47999572753907],
		"count":84,
		"byteOffset":0
	},
	{
		"max":[1.0,
		1.0,
		1.0],
		"bufferView":1,
		"type":"VEC3",
		"componentType":5126,
		"min":[-1.0,
		-1.0,
		-1.0],
		"count":84,
		"byteOffset":12
	},
	{
		"max":[314.9599914550781,
		158.47998046875],
		"bufferView":1,
		"type":"VEC2",
		"componentType":5126,
		"min":[-309.8800048828125,
		-156.47998046875],
		"count":84,
		"byteOffset":24
	},
	{
		"max":[29],
		"bufferView":2,
		"type":"SCALAR",
		"componentType":5123,
		"min":[0],
		"count":72,
		"byteOffset":0
	},
	{
		"max":[-66.04000091552735,
		0.0,
		-147.32000732421876],
		"bufferView":3,
		"type":"VEC3",
		"componentType":5126,
		"min":[-81.27999877929688,
		-20.31999969482422,
		-157.47999572753907],
		"count":30,
		"byteOffset":0
	},
	{
		"max":[1.0,
		1.0,
		1.0],
		"bufferView":3,
		"type":"VEC3",
		"componentType":5126,
		"min":[-1.0,
		-1.0,
		-1.0],
		"count":30,
		"byteOffset":12
	},
	{
		"max":[20.31999969482422,
		11.15999984741211],
		"bufferView":3,
		"type":"VEC2",
		"componentType":5126,
		"min":[-5.079999923706055,
		-14.239999771118164],
		"count":30,
		"byteOffset":24
	},
	{
		"max":[29],
		"bufferView":4,
		"type":"SCALAR",
		"componentType":5123,
		"min":[0],
		"count":72,
		"byteOffset":0
	},
	{
		"max":[-66.04000091552735,
		0.0,
		157.47999572753907],
		"bufferView":5,
		"type":"VEC3",
		"componentType":5126,
		"min":[-81.27999877929688,
		-20.31999969482422,
		147.32000732421876],
		"count":30,
		"byteOffset":0
	},
	{
		"max":[1.0,
		1.0,
		1.0],
		"bufferView":5,
		"type":"VEC3",
		"componentType":5126,
		"min":[-1.0,
		-1.0,
		-1.0],
		"count":30,
		"byteOffset":12
	},
	{
		"max":[5.079999923706055,
		11.15999984741211],
		"bufferView":5,
		"type":"VEC2",
		"componentType":5126,
		"min":[-20.31999969482422,
		-14.239999771118164],
		"count":30,
		"byteOffset":24
	},
	{
		"max":[29],
		"bufferView":6,
		"type":"SCALAR",
		"componentType":5123,
		"min":[0],
		"count":72,
		"byteOffset":0
	},
	{
		"max":[81.27999877929688,
		0.0,
		157.47999572753907],
		"bufferView":7,
		"type":"VEC3",
		"componentType":5126,
		"min":[66.04000091552735,
		-20.31999969482422,
		147.32000732421876],
		"count":30,
		"byteOffset":0
	},
	{
		"max":[1.0,
		1.0,
		1.0],
		"bufferView":7,
		"type":"VEC3",
		"componentType":5126,
		"min":[-1.0,
		-1.0,
		-1.0],
		"count":30,
		"byteOffset":12
	},
	{
		"max":[20.31999969482422,
		11.15999984741211],
		"bufferView":7,
		"type":"VEC2",
		"componentType":5126,
		"min":[-5.079999923706055,
		-14.239999771118164],
		"count":30,
		"byteOffset":24
	},
	{
		"max":[29],
		"bufferView":8,
		"type":"SCALAR",
		"componentType":5123,
		"min":[0],
		"count":72,
		"byteOffset":0
	},
	{
		"max":[81.27999877929688,
		0.0,
		-147.32000732421876],
		"bufferView":9,
		"type":"VEC3",
		"componentType":5126,
		"min":[66.04000091552735,
		-20.31999969482422,
		-157.47999572753907],
		"count":30,
		"byteOffset":0
	},
	{
		"max":[1.0,
		1.0,
		1.0],
		"bufferView":9,
		"type":"VEC3",
		"componentType":5126,
		"min":[-1.0,
		-1.0,
		-1.0],
		"count":30,
		"byteOffset":12
	},
	{
		"max":[5.079999923706055,
		11.15999984741211],
		"bufferView":9,
		"type":"VEC2",
		"componentType":5126,
		"min":[-20.31999969482422,
		-14.239999771118164],
		"count":30,
		"byteOffset":24
	},
	{
		"max":[809],
		"bufferView":10,
		"type":"SCALAR",
		"componentType":5123,
		"min":[0],
		"count":3408,
		"byteOffset":0
	},
	{
		"max":[2.984279490192421e-13,
		17.780000686645509,
		254.0],
		"bufferView":11,
		"type":"VEC3",
		"componentType":5126,
		"min":[-60.959999084472659,
		15.239999771118164,
		157.47999572753907],
		"count":810,
		"byteOffset":0
	},
	{
		"max":[1.0,
		1.0,
		1.0],
		"bufferView":11,
		"type":"VEC3",
		"componentType":5126,
		"min":[-1.0,
		-1.0,
		-1.0],
		"count":810,
		"byteOffset":12
	},
	{
		"max":[96.01200103759766,
		48.75199890136719],
		"bufferView":11,
		"type":"VEC2",
		"componentType":5126,
		"min":[-71.88200378417969,
		-46.75199890136719],
		"count":810,
		"byteOffset":24
	},
	{
		"max":[805],
		"bufferView":12,
		"type":"SCALAR",
		"componentType":5123,
		"min":[0],
		"count":3384,
		"byteOffset":0
	},
	{
		"max":[2.984279490192421e-13,
		15.239999771118164,
		254.0],
		"bufferView":13,
		"type":"VEC3",
		"componentType":5126,
		"min":[-15.239999771118164,
		10.15999984741211,
		172.210205078125],
		"count":806,
		"byteOffset":0
	},
	{
		"max":[1.0,
		1.0,
		1.0],
		"bufferView":13,
		"type":"VEC3",
		"componentType":5126,
		"min":[-1.0,
		-1.0,
		-1.0],
		"count":806,
		"byteOffset":12
	},
	{
		"max":[81.28179168701172,
		41.38689422607422],
		"bufferView":13,
		"type":"VEC2",
		"componentType":5126,
		"min":[-60.834346771240237,
		-39.38689422607422],
		"count":806,
		"byteOffset":24
	},
	{
		"max":[805],
		"bufferView":14,
		"type":"SCALAR",
		"componentType":5123,
		"min":[0],
		"count":3384,
		"byteOffset":0
	},
	{
		"max":[0.0,
		20.31999969482422,
		194.30999755859376],
		"bufferView":15,
		"type":"VEC3",
		"componentType":5126,
		"min":[-60.959999084472659,
		17.780000686645509,
		183.2084503173828],
		"count":806,
		"byteOffset":0
	},
	{
		"max":[1.0,
		1.0,
		1.0],
		"bufferView":15,
		"type":"VEC3",
		"componentType":5126,
		"min":[-1.0,
		-1.0,
		-1.0],
		"count":806,
		"byteOffset":12
	},
	{
		"max":[60.45199966430664,
		30.972000122070314],
		"bufferView":15,
		"type":"VEC2",
		"componentType":5126,
		"min":[-45.21200180053711,
		-28.972000122070314],
		"count":806,
		"byteOffset":24
	},
	{
		"max":[805],
		"bufferView":16,
		"type":"SCALAR",
		"componentType":5123,
		"min":[0],
		"count":3384,
		"byteOffset":0
	},
	{
		"max":[0.0,
		20.31999969482422,
		232.41000366210938],
		"bufferView":17,
		"type":"VEC3",
		"componentType":5126,
		"min":[-60.959999084472659,
		17.780000686645509,
		221.30844116210938],
		"count":806,
		"byteOffset":0
	},
	{
		"max":[1.0,
		1.0,
		1.0],
		"bufferView":17,
		"type":"VEC3",
		"componentType":5126,
		"min":[-1.0,
		-1.0,
		-1.0],
		"count":806,
		"byteOffset":12
	},
	{
		"max":[60.45199966430664,
		30.972000122070314],
		"bufferView":17,
		"type":"VEC2",
		"componentType":5126,
		"min":[-45.21200180053711,
		-28.972000122070314],
		"count":806,
		"byteOffset":24
	},
	{
		"max":[805],
		"bufferView":18,
		"type":"SCALAR",
		"componentType":5123,
		"min":[0],
		"count":3384,
		"byteOffset":0
	},
	{
		"max":[0.0,
		20.31999969482422,
		213.36000061035157],
		"bufferView":19,
		"type":"VEC3",
		"componentType":5126,
		"min":[-60.959999084472659,
		17.780000686645509,
		202.25845336914063],
		"count":806,
		"byteOffset":0
	},
	{
		"max":[1.0,
		1.0,
		1.0],
		"bufferView":19,
		"type":"VEC3",
		"componentType":5126,
		"min":[-1.0,
		-1.0,
		-1.0],
		"count":806,
		"byteOffset":12
	},
	{
		"max":[60.45199966430664,
		30.972000122070314],
		"bufferView":19,
		"type":"VEC2",
		"componentType":5126,
		"min":[-45.21200180053711,
		-28.972000122070314],
		"count":806,
		"byteOffset":24
	},
	{
		"max":[805],
		"bufferView":20,
		"type":"SCALAR",
		"componentType":5123,
		"min":[0],
		"count":3384,
		"byteOffset":0
	},
	{
		"max":[0.0,
		20.31999969482422,
		175.25999450683595],
		"bufferView":21,
		"type":"VEC3",
		"componentType":5126,
		"min":[-60.959999084472659,
		17.780000686645509,
		164.158447265625],
		"count":806,
		"byteOffset":0
	},
	{
		"max":[1.0,
		1.0,
		1.0],
		"bufferView":21,
		"type":"VEC3",
		"componentType":5126,
		"min":[-1.0,
		-1.0,
		-1.0],
		"count":806,
		"byteOffset":12
	},
	{
		"max":[60.45199966430664,
		30.972000122070314],
		"bufferView":21,
		"type":"VEC2",
		"componentType":5126,
		"min":[-45.21200180053711,
		-28.972000122070314],
		"count":806,
		"byteOffset":24
	},
	{
		"max":[805],
		"bufferView":22,
		"type":"SCALAR",
		"componentType":5123,
		"min":[0],
		"count":3384,
		"byteOffset":0
	},
	{
		"max":[0.0,
		20.31999969482422,
		251.45999145507813],
		"bufferView":23,
		"type":"VEC3",
		"componentType":5126,
		"min":[-60.959999084472659,
		17.780000686645509,
		240.3584442138672],
		"count":806,
		"byteOffset":0
	},
	{
		"max":[1.0,
		1.0,
		1.0],
		"bufferView":23,
		"type":"VEC3",
		"componentType":5126,
		"min":[-1.0,
		-1.0,
		-1.0],
		"count":806,
		"byteOffset":12
	},
	{
		"max":[60.45199966430664,
		30.972000122070314],
		"bufferView":23,
		"type":"VEC2",
		"componentType":5126,
		"min":[-45.21200180053711,
		-28.972000122070314],
		"count":806,
		"byteOffset":24
	},
	{
		"max":[805],
		"bufferView":24,
		"type":"SCALAR",
		"componentType":5123,
		"min":[0],
		"count":3384,
		"byteOffset":0
	},
	{
		"max":[-22.860000610351564,
		15.239999771118164,
		254.0],
		"bufferView":25,
		"type":"VEC3",
		"componentType":5126,
		"min":[-38.099998474121097,
		10.15999984741211,
		172.210205078125],
		"count":806,
		"byteOffset":0
	},
	{
		"max":[1.0,
		1.0,
		1.0],
		"bufferView":25,
		"type":"VEC3",
		"componentType":5126,
		"min":[-1.0,
		-1.0,
		-1.0],
		"count":806,
		"byteOffset":12
	},
	{
		"max":[81.28179168701172,
		41.38689422607422],
		"bufferView":25,
		"type":"VEC2",
		"componentType":5126,
		"min":[-60.834346771240237,
		-39.38689422607422],
		"count":806,
		"byteOffset":24
	},
	{
		"max":[805],
		"bufferView":26,
		"type":"SCALAR",
		"componentType":5123,
		"min":[0],
		"count":3384,
		"byteOffset":0
	},
	{
		"max":[-45.720001220703128,
		15.239999771118164,
		254.0],
		"bufferView":27,
		"type":"VEC3",
		"componentType":5126,
		"min":[-60.959999084472659,
		10.15999984741211,
		172.210205078125],
		"count":806,
		"byteOffset":0
	},
	{
		"max":[1.0,
		1.0,
		1.0],
		"bufferView":27,
		"type":"VEC3",
		"componentType":5126,
		"min":[-1.0,
		-1.0,
		-1.0],
		"count":806,
		"byteOffset":12
	},
	{
		"max":[81.28179168701172,
		41.38689422607422],
		"bufferView":27,
		"type":"VEC2",
		"componentType":5126,
		"min":[-60.834346771240237,
		-39.38689422607422],
		"count":806,
		"byteOffset":24
	},
	{
		"max":[19263],
		"bufferView":28,
		"type":"SCALAR",
		"componentType":5123,
		"min":[0],
		"count":53094,
		"byteOffset":0
	},
	{
		"max":[76.19999694824219,
		15.239999771118164,
		152.39999389648438],
		"bufferView":29,
		"type":"VEC3",
		"componentType":5126,
		"min":[-76.19999694824219,
		5.079999923706055,
		-152.39999389648438],
		"count":19264,
		"byteOffset":0
	},
	{
		"max":[1.0,
		0.0,
		1.0],
		"bufferView":29,
		"type":"VEC3",
		"componentType":5126,
		"min":[-1.0,
		-1.0,
		-1.0],
		"count":19264,
		"byteOffset":12
	},
	{
		"max":[304.79998779296877,
		153.39999389648438],
		"bufferView":29,
		"type":"VEC2",
		"componentType":5126,
		"min":[-76.19999694824219,
		-151.39999389648438],
		"count":19264,
		"byteOffset":24
	},
	{
		"max":[3204],
		"bufferView":30,
		"type":"SCALAR",
		"componentType":5123,
		"min":[0],
		"count":14412,
		"byteOffset":0
	},
	{
		"max":[76.19999694824219,
		15.239999771118164,
		152.39999389648438],
		"bufferView":31,
		"type":"VEC3",
		"componentType":5126,
		"min":[-76.19999694824219,
		15.239999771118164,
		-152.39999389648438],
		"count":3205,
		"byteOffset":0
	},
	{
		"max":[0.0,
		1.0,
		0.0],
		"bufferView":31,
		"type":"VEC3",
		"componentType":5126,
		"min":[0.0,
		1.0,
		0.0],
		"count":3205,
		"byteOffset":12
	},
	{
		"max":[152.39999389648438,
		77.19999694824219],
		"bufferView":31,
		"type":"VEC2",
		"componentType":5126,
		"min":[-152.39999389648438,
		-75.19999694824219],
		"count":3205,
		"byteOffset":24
	}],
	"bufferViews":[{
		"buffer":0,
		"byteOffset":0,
		"byteLength":432,
		"target":34963
	},
	{
		"buffer":0,
		"byteOffset":432,
		"byteLength":2688,
		"target":34962,
		"byteStride":32
	},
	{
		"buffer":1,
		"byteOffset":0,
		"byteLength":144,
		"target":34963
	},
	{
		"buffer":1,
		"byteOffset":144,
		"byteLength":960,
		"target":34962,
		"byteStride":32
	},
	{
		"buffer":2,
		"byteOffset":0,
		"byteLength":144,
		"target":34963
	},
	{
		"buffer":2,
		"byteOffset":144,
		"byteLength":960,
		"target":34962,
		"byteStride":32
	},
	{
		"buffer":3,
		"byteOffset":0,
		"byteLength":144,
		"target":34963
	},
	{
		"buffer":3,
		"byteOffset":144,
		"byteLength":960,
		"target":34962,
		"byteStride":32
	},
	{
		"buffer":4,
		"byteOffset":0,
		"byteLength":144,
		"target":34963
	},
	{
		"buffer":4,
		"byteOffset":144,
		"byteLength":960,
		"target":34962,
		"byteStride":32
	},
	{
		"buffer":5,
		"byteOffset":0,
		"byteLength":6816,
		"target":34963
	},
	{
		"buffer":5,
		"byteOffset":6816,
		"byteLength":25920,
		"target":34962,
		"byteStride":32
	},
	{
		"buffer":6,
		"byteOffset":0,
		"byteLength":6768,
		"target":34963
	},
	{
		"buffer":6,
		"byteOffset":6768,
		"byteLength":25792,
		"target":34962,
		"byteStride":32
	},
	{
		"buffer":7,
		"byteOffset":0,
		"byteLength":6768,
		"target":34963
	},
	{
		"buffer":7,
		"byteOffset":6768,
		"byteLength":25792,
		"target":34962,
		"byteStride":32
	},
	{
		"buffer":8,
		"byteOffset":0,
		"byteLength":6768,
		"target":34963
	},
	{
		"buffer":8,
		"byteOffset":6768,
		"byteLength":25792,
		"target":34962,
		"byteStride":32
	},
	{
		"buffer":9,
		"byteOffset":0,
		"byteLength":6768,
		"target":34963
	},
	{
		"buffer":9,
		"byteOffset":6768,
		"byteLength":25792,
		"target":34962,
		"byteStride":32
	},
	{
		"buffer":10,
		"byteOffset":0,
		"byteLength":6768,
		"target":34963
	},
	{
		"buffer":10,
		"byteOffset":6768,
		"byteLength":25792,
		"target":34962,
		"byteStride":32
	},
	{
		"buffer":11,
		"byteOffset":0,
		"byteLength":6768,
		"target":34963
	},
	{
		"buffer":11,
		"byteOffset":6768,
		"byteLength":25792,
		"target":34962,
		"byteStride":32
	},
	{
		"buffer":12,
		"byteOffset":0,
		"byteLength":6768,
		"target":34963
	},
	{
		"buffer":12,
		"byteOffset":6768,
		"byteLength":25792,
		"target":34962,
		"byteStride":32
	},
	{
		"buffer":13,
		"byteOffset":0,
		"byteLength":6768,
		"target":34963
	},
	{
		"buffer":13,
		"byteOffset":6768,
		"byteLength":25792,
		"target":34962,
		"byteStride":32
	},
	{
		"buffer":14,
		"byteOffset":0,
		"byteLength":106188,
		"target":34963
	},
	{
		"buffer":14,
		"byteOffset":106188,
		"byteLength":616448,
		"target":34962,
		"byteStride":32
	},
	{
		"buffer":15,
		"byteOffset":0,
		"byteLength":28824,
		"target":34963
	},
	{
		"buffer":15,
		"byteOffset":28824,
		"byteLength":102560,
		"target":34962,
		"byteStride":32
	}],
	"buffers":[{
		"uri":"data:application/octet-stream;base64,",
		"byteLength":3120
	},
	{
		"uri":"data:application/octet-stream;base64,",
		"byteLength":1104
	},
	{
		"uri":"data:application/octet-stream;base64,",
		"byteLength":1104
	},
	{
		"uri":"data:application/octet-stream;base64,",
		"byteLength":1104
	},
	{
		"uri":"data:application/octet-stream;base64,",
		"byteLength":1104
	},
	{
		"uri":"data:application/octet-stream;base64,",
		"byteLength":32736
	},
	{
		"uri":"data:application/octet-stream;base64,",
		"byteLength":32560
	},
	{
		"uri":"data:application/octet-stream;base64,",
		"byteLength":32560
	},
	{
		"uri":"data:application/octet-stream;base64,",
		"byteLength":32560
	},
	{
		"uri":"data:application/octet-stream;base64,",
		"byteLength":32560
	},
	{
		"uri":"data:application/octet-stream;base64,",
		"byteLength":32560
	},
	{
		"uri":"data:application/octet-stream;base64,",
		"byteLength":32560
	},
	{
		"uri":"data:application/octet-stream;base64,",
		"byteLength":32560
	},
	{
		"uri":"data:application/octet-stream;base64,",
		"byteLength":32560
	},
	{
		"uri":"data:application/octet-stream;base64,",
		"byteLength":722636
	},
	{
		"uri":"data:application/octet-stream;base64,",
		"byteLength":131384
	}],
	"materials":[{
		"pbrMetallicRoughness":{
			"baseColorFactor":[0.8588235294117647,
			0.6509803921568628,
			0.4,
			1.0],
			"metallicFactor":0.0,
			"roughnessFactor":0.5678071905112637
		},
		"emissiveFactor":[0.0,
		0.0,
		0.0],
		"alphaMode":"OPAQUE",
		"doubleSided":true,
		"name":"3D Pine - Unfinished"
	},
	{
		"pbrMetallicRoughness":{
			"baseColorFactor":[0.15294117647058826,
			0.15294117647058826,
			0.15294117647058826,
			1.0],
			"metallicFactor":0.0,
			"roughnessFactor":0.5678071905112637
		},
		"emissiveFactor":[0.0,
		0.0,
		0.0],
		"alphaMode":"OPAQUE",
		"doubleSided":true,
		"name":"Rubber - Bumpy"
	}]
}